<svg width="100" height="100" viewBox="0 0 100 100" fill="none" xmlns="http://www.w3.org/2000/svg">
<path d="M50 95C74.8528 95 95 74.8528 95 50C95 25.1472 74.8528 5 50 5C25.1472 5 5 25.1472 5 50C5 74.8528 25.1472 95 50 95Z" fill="#FF4500"/>
<path d="M80 59.2308C80 64.2087 78.6187 68.9827 76.1598 72.5026C73.701 76.0225 70.3662 78 66.8889 78H34.1111C30.6338 78 27.299 76.0225 24.8402 72.5026C22.3813 68.9827 21 64.2087 21 59.2308C21 35.7692 34.1111 17 50.5 17C66.8889 17 80 35.7692 80 59.2308Z" fill="white"/>
<path d="M22 58.5C25.3137 58.5 28 55.8137 28 52.5C28 49.1863 25.3137 46.5 22 46.5C18.6863 46.5 16 49.1863 16 52.5C16 55.8137 18.6863 58.5 22 58.5Z" fill="black"/>
<path d="M56 79C59.3137 79 62 76.3137 62 73C62 69.6863 59.3137 67 56 67C52.6863 67 50 69.6863 50 73C50 76.3137 52.6863 79 56 79Z" fill="black"/>
<path d="M74 29C77.3137 29 80 26.3137 80 23C80 19.6863 77.3137 17 74 17C70.6863 17 68 19.6863 68 23C68 26.3137 70.6863 29 74 29Z" fill="black"/>
<path d="M22 53C22.1006 53 22.2011 53 27.4827 56.135C32.7642 59.27 43.2236 65.54 54 72" stroke="#FF0000" stroke-width="6" stroke-linecap="round"/>
<path d="M74 25C73.9466 25 73.8931 25 71.0873 32.755C68.2815 40.51 62.725 56.02 57 72" stroke="#002FFF" stroke-width="6" stroke-linecap="round"/>
<path d="M22 58.5C25.3137 58.5 28 55.8137 28 52.5C28 49.1863 25.3137 46.5 22 46.5C18.6863 46.5 16 49.1863 16 52.5C16 55.8137 18.6863 58.5 22 58.5Z" fill="black"/>
<path d="M56 79C59.3137 79 62 76.3137 62 73C62 69.6863 59.3137 67 56 67C52.6863 67 50 69.6863 50 73C50 76.3137 52.6863 79 56 79Z" fill="black"/>
<path d="M74 29C77.3137 29 80 26.3137 80 23C80 19.6863 77.3137 17 74 17C70.6863 17 68 19.6863 68 23C68 26.3137 70.6863 29 74 29Z" fill="black"/>
</svg>
